<svg width="105" height="104" viewBox="0 0 105 104" fill="none" xmlns="http://www.w3.org/2000/svg">
<path d="M68.0516 62.5592C68.0526 62.5524 68.0531 62.5515 68.0517 62.5586L68.0516 62.5592Z" fill="#2B1105"/>
<path fill-rule="evenodd" clip-rule="evenodd" d="M32.1858 35.5771C33.308 35.7543 34.3116 36.2134 35.1869 36.9487C35.996 37.6284 36.4462 38.5293 36.5585 39.6069H37.1572L37.6531 33.8217C34.7915 32.8974 32.429 32.448 30.5518 32.448C25.5536 32.448 21.1579 34.3658 17.3431 38.2431C13.5594 42.0894 11.6858 46.5034 11.6858 51.5063C11.6858 55.4655 13.0573 59.0058 15.8245 62.1467C18.6237 65.2875 21.7654 66.8152 25.264 66.8152C28.1528 66.8152 30.8498 66.1328 33.3636 64.7673C35.2927 63.7194 37.5142 61.9513 39.6102 59.8594L40.3234 59.1477L40.5433 60.131C40.9116 61.7773 41.7917 63.1605 43.2093 64.2907C45.1665 65.8257 47.8366 66.6229 51.2779 66.6229C54.7169 66.6229 57.6384 65.8422 60.0667 64.3053L60.0694 64.3036C61.2615 63.5585 62.24 62.4957 63.0006 61.0961C63.7542 59.7094 64.1698 58.082 64.2315 56.1991L64.2559 55.456L64.9613 55.6911C65.074 55.7287 65.2637 55.7588 65.555 55.7588C66.8444 55.7588 68.1215 55.2376 69.3958 54.1212L70.9888 52.7294L70.2792 54.7369L66.8104 63.7872L66.8082 63.7926C66.437 64.7038 65.9745 65.4246 65.3912 65.8912L65.3821 65.8985L65.3727 65.9053C64.7477 66.3637 63.8322 66.5415 62.7373 66.5415H62.619V66.7782H70.9316V66.5415H70.7171C69.5792 66.5415 68.7489 66.497 68.3118 66.3778C68.0829 66.3153 67.8499 66.2115 67.669 66.0305C67.4736 65.8351 67.3743 65.5845 67.3743 65.3139C67.3743 64.9293 67.5137 64.3577 67.7358 63.659C67.8471 63.2932 67.9295 63.0145 67.9837 62.8208C68.0111 62.7232 68.0301 62.6514 68.0418 62.6029C68.044 62.5935 68.0459 62.5857 68.0473 62.5792V62.518L71.395 53.8951H84.2705L87.6799 62.8197L87.6836 62.831C87.8446 63.314 87.9672 63.6978 88.0501 63.9796C88.0914 64.12 88.1245 64.2406 88.1477 64.3381C88.1663 64.4164 88.1928 64.5346 88.1928 64.6409C88.1928 65.2624 87.9333 65.7835 87.4072 66.1183C86.9235 66.4261 86.269 66.5415 85.523 66.5415H84.5394V66.7782H95.7363V66.5415H94.5604C93.7661 66.5415 93.0695 66.342 92.5512 65.8669L92.5334 65.8506L92.5171 65.8329C92.1128 65.3918 91.7324 64.7768 91.368 64.0149L91.3583 63.9946L79.7751 33.6711C79.7674 33.6833 79.7595 33.6956 79.7515 33.708C79.6545 33.8578 79.5148 34.0563 79.3365 34.2995L79.331 34.3069L79.3253 34.3142C78.9628 34.7756 78.5682 35.2359 78.142 35.6949L78.135 35.7024L78.1277 35.7097C77.9117 35.9257 77.7171 36.1039 77.5472 36.236C77.4775 36.2902 77.396 36.3498 77.3064 36.4023L72.5026 48.9357L72.4849 48.9682C72.2972 49.3123 72.1333 49.635 71.9792 49.9404L71.9373 50.0234C71.7998 50.2962 71.6673 50.5589 71.5352 50.802C71.2453 51.3354 70.9305 51.8266 70.4857 52.2133C69.6359 52.9523 68.5885 53.3109 67.3817 53.3109C67.1278 53.3109 66.771 53.2558 66.3436 53.1671C65.9045 53.076 65.3524 52.9408 64.6902 52.7631L64.6869 52.7622C63.4342 52.4177 62.3805 52.2533 61.517 52.2533C58.8599 52.2533 56.3498 54.2158 54.0512 58.5617L54.3443 58.6455C55.1777 57.3278 55.993 56.3305 56.7961 55.6881C57.7132 54.9544 58.8518 54.6051 60.171 54.6051C61.1273 54.6051 61.9252 54.7177 62.5033 54.9967C62.7999 55.1399 63.0581 55.3363 63.2413 55.6017C63.4277 55.8716 63.5138 56.1803 63.5138 56.5057C63.5138 59.3241 62.6004 61.487 60.6881 62.8682C58.8398 64.203 56.4898 64.8479 53.6814 64.8479C50.8559 64.8479 48.5723 64.081 46.9042 62.4825C45.2635 60.9101 44.4259 59.0215 44.4259 56.8422C44.4259 55.324 44.7301 53.926 45.3471 52.6578L45.3516 52.6485L45.3564 52.6394C45.6452 52.098 46.0377 51.6014 46.526 51.148C47.0154 50.6912 47.4498 50.3226 47.827 50.0483L47.8362 50.0416L47.8456 50.0353C48.276 49.7484 48.8435 49.4761 49.5315 49.2135C50.1983 48.9279 50.7539 48.7144 51.1927 48.5783C51.6274 48.4121 52.2281 48.218 52.9872 47.9964C53.5401 47.8121 53.9818 47.662 54.3139 47.5458L54.3758 46.8439C51.5475 46.6896 49.26 46.074 47.5592 44.9508L47.5551 44.9481C45.7678 43.7451 44.8105 42.1765 44.8105 40.2577C44.8105 38.3748 45.3983 36.8736 46.6507 35.8606C47.8807 34.8657 49.6633 34.4152 51.9028 34.4152C54.533 34.4152 56.595 34.7855 58.0174 35.5932C59.3296 36.3384 60.0752 37.4462 60.2192 38.8697L60.7317 38.9018L61.2184 34.1964C59.5339 33.1777 57.1836 32.6403 54.1141 32.6403C50.9162 32.6403 48.181 33.4764 45.8829 35.1306C43.6562 36.7561 42.5548 38.9284 42.5548 41.6998C42.5548 43.352 43.1087 44.7323 44.2191 45.8743C45.3469 46.9705 46.933 47.5916 49.0426 47.6834L52.4999 47.876L49.1073 48.785C46.8553 49.1502 44.8241 50.1839 43.0069 51.9087L43.0033 51.9121C42.5419 52.3423 42.1406 52.8021 41.7994 53.2925L40.6491 55.7807C40.4929 56.3668 40.3966 56.9846 40.3602 57.6347L40.3492 57.8299L40.2183 57.9751C38.5369 59.8397 36.5031 61.5451 34.6574 62.524C32.4913 63.6726 30.4782 64.2711 28.629 64.2711C25.6867 64.2711 22.6574 63.0869 19.551 60.798L19.5473 60.7952C17.9223 59.5765 16.5889 57.8482 15.5339 55.6392C14.4675 53.4064 13.9414 50.871 13.9414 48.0452C13.9414 44.1089 15.3858 40.9622 18.2862 38.6689C21.1461 36.4075 24.506 35.2805 28.3406 35.2805C29.8621 35.2805 31.1469 35.377 32.1858 35.5771ZM71.7362 52.9855H83.8257L77.8364 37.125L71.7362 52.9855Z" fill="#2B1105"/>
<circle cx="52.5" cy="52" r="51.3067" stroke="#2B1105" stroke-width="1.38667"/>
</svg>
